<?xml version="1.0" standalone="no"?>
<!DOCTYPE svg PUBLIC "-//W3C//DTD SVG 20010904//EN"
 "http://www.w3.org/TR/2001/REC-SVG-20010904/DTD/svg10.dtd">
<svg version="1.0" xmlns="http://www.w3.org/2000/svg"
 width="755.000000pt" height="152.000000pt" viewBox="0 0 755.000000 152.000000"
 preserveAspectRatio="xMidYMid meet">

<g transform="translate(0.000000,152.000000) scale(0.100000,-0.100000)"
fill="#000000" stroke="none">
<path d="M6 1491 c-3 -4 203 -308 457 -674 l462 -666 410 0 410 0 155 224 c85
124 155 230 155 237 0 10 -58 13 -270 13 l-269 0 -88 -120 c-51 -71 -94 -120
-104 -120 -11 0 -152 195 -403 557 l-386 557 -262 1 c-144 0 -264 -4 -267 -9z"/>
<path d="M2088 1453 c-193 -268 -498 -715 -493 -723 4 -7 251 -10 707 -10 611
0 699 -2 695 -15 -4 -8 -41 -64 -84 -125 l-77 -110 -391 0 -392 0 -20 -23
c-46 -51 -204 -288 -198 -297 7 -12 1303 -14 1321 -2 19 12 617 876 618 892 1
13 -84 15 -701 18 -387 1 -703 5 -703 10 0 4 16 29 36 55 l35 48 707 -6 c389
-4 712 -3 718 2 19 13 214 305 214 320 0 11 -175 13 -979 13 l-979 0 -34 -47z"/>
<path d="M4300 1390 c-13 -8 3 -45 95 -226 61 -119 118 -227 128 -240 16 -21
27 -24 78 -24 71 0 56 -20 201 265 66 131 99 207 95 218 -5 13 -19 17 -61 17
-30 0 -62 -3 -71 -7 -10 -3 -51 -76 -92 -162 l-75 -156 -75 150 c-41 83 -82
156 -91 163 -19 14 -111 16 -132 2z"/>
<path d="M4947 1394 c-4 -4 -7 -22 -7 -40 0 -39 21 -54 72 -54 50 0 70 19 66
60 l-3 35 -60 3 c-34 2 -64 0 -68 -4z"/>
<path d="M5719 1285 c-57 -18 -82 -44 -77 -82 3 -25 8 -28 41 -31 24 -2 53 4
76 17 57 29 109 31 135 5 34 -33 20 -44 -54 -44 -98 0 -164 -16 -200 -50 -25
-23 -30 -36 -30 -75 0 -38 5 -52 28 -75 50 -49 158 -65 243 -35 28 10 45 12
47 5 2 -5 30 -10 63 -10 l59 0 0 138 c0 161 -11 193 -75 226 -51 27 -188 32
-256 11z m191 -250 c0 -19 -7 -26 -37 -35 -21 -7 -56 -10 -78 -8 -33 2 -41 7
-43 27 -5 33 12 41 91 41 65 0 67 -1 67 -25z"/>
<path d="M6219 1285 c-57 -18 -82 -44 -77 -82 3 -25 8 -28 41 -31 24 -2 53 4
76 17 57 29 109 31 135 5 34 -33 20 -44 -54 -44 -98 0 -164 -16 -200 -50 -25
-23 -30 -36 -30 -75 0 -38 5 -52 28 -75 50 -49 158 -65 243 -35 28 10 45 12
47 5 2 -5 30 -10 63 -10 l59 0 0 138 c0 161 -11 193 -75 226 -51 27 -188 32
-256 11z m191 -250 c0 -19 -7 -26 -37 -35 -21 -7 -56 -10 -78 -8 -33 2 -41 7
-43 27 -5 33 12 41 91 41 65 0 67 -1 67 -25z"/>
<path d="M6835 1288 c-16 -6 -36 -15 -43 -21 -9 -7 -16 -5 -25 7 -10 14 -25
16 -72 14 l-60 -3 0 -185 0 -185 68 -3 67 -3 0 124 0 125 28 18 c16 12 53 21
92 24 l65 5 0 45 0 45 -45 2 c-25 1 -58 -3 -75 -9z"/>
<path d="M5270 1278 c-87 -24 -130 -88 -130 -190 0 -120 68 -186 199 -196 140
-10 241 35 244 108 l2 35 -49 3 c-42 3 -53 -1 -78 -25 -25 -24 -38 -28 -85
-28 -73 0 -93 23 -93 107 0 49 4 63 25 83 35 36 91 34 141 -5 32 -26 45 -30
83 -28 43 3 46 5 49 34 4 44 -29 81 -90 99 -57 17 -165 18 -218 3z"/>
<path d="M4945 1258 c-3 -8 -4 -90 -3 -183 l3 -170 68 -3 67 -3 -2 183 -3 183
-63 3 c-45 2 -64 -1 -67 -10z"/>
<path d="M5554 696 c-3 -8 -4 -102 -2 -210 3 -217 8 -232 79 -268 38 -20 151
-24 194 -8 22 8 26 15 23 42 -3 33 -3 33 -65 36 -81 4 -93 19 -93 119 l0 72
63 3 62 3 0 40 0 40 -62 3 -62 3 -3 67 -3 67 -63 3 c-48 2 -64 0 -68 -12z"/>
<path d="M5897 704 c-4 -4 -7 -22 -7 -40 0 -39 21 -54 72 -54 50 0 70 19 66
60 l-3 35 -60 3 c-34 2 -64 0 -68 -4z"/>
<path d="M3816 686 c-129 -36 -157 -179 -46 -236 22 -11 99 -34 170 -50 142
-32 170 -43 170 -65 0 -27 -40 -37 -141 -33 -97 3 -99 4 -128 36 -23 25 -38
32 -66 32 -72 0 -91 -30 -59 -91 10 -20 33 -39 67 -55 47 -22 65 -24 192 -24
163 0 207 10 252 55 28 28 33 40 33 82 0 92 -39 118 -247 168 -84 20 -156 41
-159 47 -4 5 0 17 9 25 12 12 37 15 113 14 96 -1 100 -2 127 -31 24 -25 36
-30 76 -30 57 0 76 16 66 58 -7 34 -34 61 -85 88 -46 24 -271 31 -344 10z"/>
<path d="M4815 688 c-3 -7 -4 -119 -3 -248 l3 -235 68 -3 67 -3 -2 248 -3 248
-63 3 c-44 2 -64 -1 -67 -10z"/>
<path d="M7198 599 c-59 -17 -88 -50 -88 -102 0 -65 42 -100 147 -122 43 -10
93 -24 112 -31 28 -12 31 -16 21 -29 -17 -20 -119 -20 -146 0 -11 9 -42 14
-76 15 -52 0 -58 -2 -58 -21 0 -68 53 -93 195 -94 127 0 152 5 194 41 26 21
31 33 31 69 0 71 -50 105 -200 135 -67 13 -85 23 -77 44 8 21 105 22 133 1 22
-17 120 -20 129 -4 13 20 -17 68 -53 85 -44 21 -206 29 -264 13z"/>
<path d="M6220 588 c-92 -26 -134 -92 -128 -203 4 -84 31 -129 95 -161 58 -29
213 -27 270 3 59 32 86 75 91 145 6 81 -4 123 -39 163 -50 57 -187 82 -289 53z
m173 -109 c13 -19 19 -43 19 -79 0 -75 -24 -104 -89 -108 -69 -4 -93 25 -93
108 0 83 24 112 93 108 41 -2 54 -8 70 -29z"/>
<path d="M6793 581 c-35 -17 -42 -17 -47 -5 -4 11 -21 14 -68 12 l-63 -3 0
-185 0 -185 68 -3 67 -3 0 129 0 128 39 22 c49 28 83 28 107 1 15 -17 19 -41
22 -150 l4 -129 64 0 64 0 0 144 c0 132 -2 146 -23 177 -44 67 -147 89 -234
50z"/>
<path d="M4430 578 c-92 -26 -134 -92 -128 -203 4 -84 31 -129 95 -161 58 -29
213 -27 270 3 59 32 86 75 91 145 6 81 -4 123 -39 163 -50 57 -187 82 -289 53z
m173 -109 c13 -19 19 -43 19 -79 0 -75 -24 -104 -89 -108 -69 -4 -93 25 -93
108 0 83 24 112 93 108 41 -2 54 -8 70 -29z"/>
<path d="M5034 576 c-3 -9 -4 -73 -2 -143 3 -105 7 -134 23 -161 40 -67 148
-91 234 -52 52 24 51 24 51 5 0 -12 14 -15 65 -15 l65 0 0 190 0 191 -67 -3
-68 -3 0 -123 c0 -119 -1 -123 -25 -142 -47 -36 -110 -37 -126 -2 -5 9 -11 73
-14 142 l-5 125 -63 3 c-49 2 -64 0 -68 -12z"/>
<path d="M5895 568 c-3 -8 -4 -90 -3 -183 l3 -170 68 -3 67 -3 -2 183 -3 183
-63 3 c-45 2 -64 -1 -67 -10z"/>
</g>
</svg>
