<?xml version="1.0" standalone="no"?>
<!DOCTYPE svg PUBLIC "-//W3C//DTD SVG 20010904//EN"
 "http://www.w3.org/TR/2001/REC-SVG-20010904/DTD/svg10.dtd">
<svg version="1.0" xmlns="http://www.w3.org/2000/svg"
 width="755.000000pt" height="152.000000pt" viewBox="0 0 755.000000 152.000000"
 preserveAspectRatio="xMidYMid meet">
<metadata>
Created by potrace 1.15, written by Peter Selinger 2001-2017
</metadata>
<g transform="translate(0.000000,152.000000) scale(0.100000,-0.100000)"
fill="#000000" stroke="none">
<path d="M6 1491 c-3 -4 203 -308 457 -674 l462 -666 410 0 410 0 155 224 c85
124 155 230 155 237 0 10 -58 13 -270 13 l-269 0 -88 -120 c-51 -71 -94 -120
-104 -120 -11 0 -152 195 -403 557 l-386 557 -262 1 c-144 0 -264 -4 -267 -9z"/>
<path d="M2088 1453 c-193 -268 -498 -715 -493 -723 4 -7 251 -10 707 -10 611
0 699 -2 695 -15 -4 -8 -41 -64 -84 -125 l-77 -110 -391 0 -392 0 -20 -23
c-46 -51 -204 -288 -198 -297 7 -12 1303 -14 1321 -2 19 12 617 876 618 892 1
13 -84 15 -701 18 -387 1 -703 5 -703 10 0 4 16 29 36 55 l35 48 707 -6 c389
-4 712 -3 718 2 19 13 214 305 214 320 0 11 -175 13 -979 13 l-979 0 -34 -47z"/>
</g>
</svg>
